<?xml version="1.0" encoding="UTF-8"?><svg id="sweetleaves_Logo_Icon" xmlns="http://www.w3.org/2000/svg" viewBox="0 0 3943.82 892.68"><defs><style>.cls-1{fill:#0e2d25;}</style></defs><path class="cls-1" d="M640.51,372c-.4-.24-.73-.59-.99-1.06-.26-.47-.39-1.06-.39-1.77v-44.84h-.64c-.43.43-1.25.78-2.48,1.06-1.23.28-2.57.5-4.01.64-1.44.14-2.83.25-4.15.32-1.33.07-2.3.11-2.91.11v.64c.28,0,.64.02,1.06.07.43.05.84.15,1.24.32.4.17.73.45.99.85.26.4.39.96.39,1.67v39.16c0,.71-.13,1.3-.39,1.77-.26.47-.59.83-.99,1.06-.4.24-.82.4-1.24.5-.43.1-.78.14-1.06.14v.64h17.89v-.64c-.28,0-.64-.05-1.06-.14-.43-.09-.84-.26-1.24-.5Z"/><path class="cls-1" d="M676.01,367c-.9,1.11-1.89,2-2.98,2.66-1.09.66-2.23,1.14-3.41,1.42-1.18.28-2.37.43-3.55.43-1.7,0-3.37-.32-5-.96-1.63-.64-3.06-1.62-4.29-2.95-1.23-1.32-2.23-2.98-2.98-4.97-.76-1.99-1.14-4.35-1.14-7.1,0-2.13.14-4.05.43-5.75l24.99-.07c0-2.22-.38-4.14-1.14-5.75-.76-1.61-1.8-2.96-3.12-4.05-1.33-1.09-2.87-1.89-4.65-2.41-1.77-.52-3.7-.78-5.79-.78-2.74,0-5.41.4-7.99,1.21-2.58.81-4.86,1.99-6.85,3.55-1.99,1.56-3.57,3.51-4.76,5.86-1.18,2.34-1.77,5.07-1.77,8.2s.59,5.86,1.77,8.2c1.18,2.34,2.76,4.29,4.72,5.86,1.96,1.56,4.21,2.74,6.74,3.55,2.53.8,5.17,1.21,7.92,1.21,1.75,0,3.48-.23,5.18-.68,1.7-.45,3.28-1.14,4.72-2.06,1.44-.92,2.72-2.09,3.83-3.51,1.11-1.42,1.95-3.08,2.52-4.97l-1.14-.21c-.62,1.61-1.37,2.97-2.27,4.08ZM657.09,340.73c1.77-1.87,3.94-2.8,6.5-2.8,1.99,0,3.55.9,4.68,2.7,1.14,1.8,1.75,4.47,1.85,8.02h-16.82c.76-3.41,2.02-6.04,3.8-7.92Z"/><path class="cls-1" d="M756.94,338.6c.57-.12.99-.18,1.28-.18v-.64h-12.07v.64c.28,0,.75.06,1.38.18.64.12,1.23.37,1.77.75.54.38.9.92,1.06,1.63.16.71-.06,1.63-.67,2.77l-9.16,18.31-10.72-20.37c-.33-.66-.44-1.19-.32-1.6.12-.4.35-.73.71-.99.35-.26.76-.44,1.21-.53.45-.09.82-.14,1.1-.14v-.64h-19.8v.64c.57,0,1.31.23,2.24.68.92.45,1.74,1.31,2.45,2.59l17.53,31.59h1.28l14.77-29.53c.66-1.14,1.35-2.06,2.06-2.77.71-.71,1.4-1.25,2.06-1.63.66-.38,1.28-.63,1.85-.75Z"/><path class="cls-1" d="M784.32,367c-.9,1.11-1.89,2-2.98,2.66-1.09.66-2.23,1.14-3.41,1.42-1.18.28-2.37.43-3.55.43-1.7,0-3.37-.32-5-.96-1.63-.64-3.06-1.62-4.29-2.95-1.23-1.32-2.23-2.98-2.98-4.97-.76-1.99-1.14-4.35-1.14-7.1,0-2.13.14-4.05.43-5.75l24.99-.07c0-2.22-.38-4.14-1.14-5.75-.76-1.61-1.8-2.96-3.12-4.05-1.33-1.09-2.87-1.89-4.65-2.41-1.77-.52-3.7-.78-5.79-.78-2.74,0-5.41.4-7.99,1.21-2.58.81-4.86,1.99-6.85,3.55-1.99,1.56-3.57,3.51-4.76,5.86-1.18,2.34-1.77,5.07-1.77,8.2s.59,5.86,1.77,8.2c1.18,2.34,2.76,4.29,4.72,5.86,1.96,1.56,4.21,2.74,6.74,3.55,2.53.8,5.17,1.21,7.92,1.21,1.75,0,3.48-.23,5.18-.68,1.7-.45,3.28-1.14,4.72-2.06,1.44-.92,2.72-2.09,3.83-3.51,1.11-1.42,1.95-3.08,2.52-4.97l-1.14-.21c-.62,1.61-1.37,2.97-2.27,4.08ZM765.4,340.73c1.77-1.87,3.94-2.8,6.5-2.8,1.99,0,3.55.9,4.68,2.7,1.14,1.8,1.75,4.47,1.85,8.02h-16.82c.76-3.41,2.02-6.04,3.8-7.92Z"/><path class="cls-1" d="M820.43,359.19c-1.14-1.44-2.56-2.71-4.26-3.8-1.7-1.09-3.55-2.05-5.54-2.87s-3.83-1.68-5.54-2.56c-1.7-.88-3.12-1.85-4.26-2.91-1.14-1.06-1.7-2.35-1.7-3.87,0-.66.12-1.3.35-1.92.24-.61.6-1.17,1.1-1.67.5-.5,1.15-.9,1.95-1.21.8-.31,1.77-.46,2.91-.46s2.05.2,2.73.6c.69.4,1.25.9,1.7,1.49.45.59.85,1.23,1.21,1.92.35.69.73,1.33,1.14,1.92.4.59.91,1.09,1.53,1.49.61.4,1.42.6,2.41.6,1.09,0,1.99-.32,2.7-.96.71-.64,1.06-1.48,1.06-2.52s-.45-2-1.35-2.73c-.9-.73-2.05-1.32-3.44-1.77-1.4-.45-2.95-.77-4.65-.96-1.7-.19-3.38-.28-5.04-.28-2.75,0-5.11.26-7.1.78s-3.63,1.21-4.93,2.06c-1.3.85-2.26,1.83-2.88,2.95-.62,1.11-.92,2.28-.92,3.51,0,1.99.54,3.67,1.63,5.04,1.09,1.37,2.46,2.57,4.12,3.58,1.66,1.02,3.44,1.93,5.36,2.73,1.92.81,3.7,1.66,5.36,2.56,1.66.9,3.03,1.89,4.12,2.98,1.09,1.09,1.63,2.44,1.63,4.05,0,2.37-.71,3.99-2.13,4.86s-3.31,1.31-5.68,1.31c-3.41,0-6.21-1.21-8.41-3.62-2.2-2.41-3.7-5.65-4.51-9.72h-.71l-3.19,8.73c1.85,1.7,4.19,3.1,7.03,4.19,2.84,1.09,6.1,1.63,9.8,1.63,2.7,0,5.15-.2,7.35-.6,2.2-.4,4.1-1,5.71-1.81,1.61-.8,2.85-1.82,3.73-3.05.88-1.23,1.31-2.67,1.31-4.33,0-2.13-.57-3.92-1.7-5.36Z"/><path class="cls-1" d="M718.05,370.4c-.4-.07-.73-.2-.99-.39-.26-.19-.39-.47-.39-.85v-19.66c0-2.74-.52-4.95-1.56-6.6-1.04-1.66-2.41-2.95-4.12-3.87-1.7-.92-3.64-1.54-5.82-1.84-2.18-.31-4.4-.46-6.67-.46-3.27,0-5.94.3-8.02.89-2.08.59-3.7,1.31-4.86,2.16-1.16.85-1.96,1.76-2.41,2.73-.45.97-.67,1.83-.67,2.59,0,1.09.32,2,.96,2.73.64.73,1.6,1.1,2.87,1.1,1.18,0,2.09-.27,2.73-.82.64-.54,1.16-1.23,1.56-2.06.4-.83.75-1.71,1.03-2.66.28-.95.67-1.83,1.17-2.66.5-.83,1.18-1.51,2.06-2.06.88-.54,2.07-.82,3.58-.82.95,0,1.87.17,2.77.5.9.33,1.71.92,2.45,1.77.73.85,1.32,2.02,1.77,3.51.45,1.49.67,3.4.67,5.71-2.84,0-5.76.27-8.77.82-3.01.54-5.74,1.4-8.2,2.56-2.46,1.16-4.48,2.69-6.07,4.58-1.59,1.89-2.38,4.19-2.38,6.89,0,1.18.22,2.39.67,3.62.45,1.23,1.17,2.32,2.17,3.27.99.95,2.28,1.73,3.87,2.34,1.58.61,3.51.92,5.79.92,1.8,0,3.39-.26,4.79-.78,1.4-.52,2.63-1.21,3.69-2.06.07-.05.12-.12.18-.17-.26-.15-.51-.3-.74-.49-.34-.27-.64-.59-.9-.93-.98.43-2.06.66-3.27.66-.66,0-1.34-.13-2.02-.39-.69-.26-1.3-.66-1.85-1.21-.54-.54-.98-1.27-1.31-2.17-.33-.9-.5-1.99-.5-3.27,0-2.03.35-3.86,1.06-5.47.71-1.61,1.73-2.98,3.05-4.12,1.32-1.14,2.9-2,4.72-2.59,1.82-.59,3.82-.89,6-.89v5.41c3.63-2.73,3.9-4.88,3.91-4.9.06-.58.5-1.07,1.07-1.17.57-.1,1.15.16,1.41.68.17.34,4.1,8.3,1.36,14.92-1.39,3.34-3.91,5.69-6.92,6.45-.27.07-.55.12-.82.16v1.24h.64l13.56-2.13v-.64h-1.06c-.43,0-.84-.04-1.24-.11Z"/><path class="cls-1" d="M711.38,351.1s-.15,3.22-5.93,6.9c-4.48,2.85-6.42,8.43-4.02,11.28,2.89-1.76,5.48-4.19,7.11-7.22-1.03,3.21-3.07,6.04-5.54,8.36,0,0,0,0,0,0,2.88,1.22,7.55-.3,9.7-5.49,2.55-6.14-1.32-13.83-1.32-13.83Z"/><polygon class="cls-1" points="701.43 369.28 701.43 369.27 701.43 369.27 701.43 369.28"/><path class="cls-1" d="M656.85,302.83c-1.81-1.15-3.76-2.17-5.87-3.05-2.11-.88-4.06-1.78-5.87-2.71-1.81-.93-3.31-1.96-4.51-3.09-1.2-1.13-1.81-2.49-1.81-4.1,0-.7.12-1.38.38-2.03.25-.65.64-1.24,1.17-1.77.53-.53,1.22-.95,2.07-1.28.85-.33,1.88-.49,3.08-.49s2.17.21,2.9.64c.73.43,1.33.95,1.81,1.58.48.63.9,1.3,1.28,2.03.38.73.78,1.41,1.2,2.03.43.63.97,1.15,1.62,1.58.65.43,1.5.64,2.56.64,1.15,0,2.11-.34,2.86-1.02.75-.68,1.13-1.57,1.13-2.67s-.48-2.12-1.43-2.9c-.95-.78-2.17-1.4-3.65-1.88-1.48-.48-3.12-.82-4.93-1.02-1.81-.2-3.59-.3-5.34-.3-2.91,0-5.42.28-7.52.83s-3.85,1.28-5.23,2.18c-1.38.9-2.4,1.94-3.05,3.12-.65,1.18-.98,2.42-.98,3.72,0,2.11.58,3.89,1.73,5.34,1.15,1.46,2.61,2.72,4.36,3.8,1.76,1.08,3.65,2.04,5.68,2.9,2.03.85,3.92,1.76,5.68,2.71,1.76.95,3.21,2.01,4.36,3.16,1.15,1.15,1.73,2.58,1.73,4.29,0,2.51-.75,4.23-2.26,5.15-1.5.93-3.51,1.39-6.02,1.39-3.61,0-6.58-1.28-8.92-3.84-2.33-2.56-3.93-5.99-4.78-10.31h-.75l-3.39,9.25c1.96,1.81,4.44,3.29,7.45,4.44,3.01,1.15,6.47,1.73,10.38,1.73,2.86,0,5.45-.21,7.79-.64,2.33-.43,4.35-1.07,6.06-1.92,1.7-.85,3.02-1.93,3.95-3.23.93-1.3,1.39-2.83,1.39-4.59,0-2.26-.6-4.15-1.81-5.68-1.2-1.53-2.71-2.87-4.51-4.03Z"/><path class="cls-1" d="M721.86,287.52c.78-.73,1.52-1.29,2.22-1.69.7-.4,1.35-.66,1.96-.79.6-.12,1.05-.19,1.35-.19v-.68h-12.79v.68c.3,0,.79.06,1.47.19.68.13,1.29.39,1.84.79.55.4.93.97,1.13,1.69.2.73-.03,1.72-.68,2.97l-9.18,19.41-10.68-21.59c-.35-.7-.46-1.28-.34-1.73.12-.45.36-.8.71-1.05.35-.25.76-.43,1.24-.53.48-.1.87-.15,1.17-.15v-.68h-20.31v.68c.6,0,1.39.23,2.37.68.98.45,1.84,1.38,2.6,2.78l6.24,11.89-4.51,9.7-10.68-21.59c-.35-.7-.46-1.28-.34-1.73.12-.45.38-.8.75-1.05.38-.25.79-.43,1.24-.53.45-.1.83-.15,1.13-.15v-.68h-20.31v.68c.6,0,1.39.23,2.37.68.98.45,1.84,1.38,2.6,2.78l17.68,33.48h1.43l9.4-20.16,10.68,20.16h1.43l14.67-31.3c.65-1.25,1.37-2.24,2.14-2.97Z"/><path class="cls-1" d="M754.74,314.86c-.95,1.18-2.01,2.12-3.16,2.82-1.15.7-2.36,1.2-3.61,1.51-1.25.3-2.51.45-3.76.45-1.81,0-3.57-.34-5.3-1.02-1.73-.68-3.25-1.72-4.55-3.12-1.3-1.4-2.36-3.16-3.16-5.27-.8-2.11-1.2-4.61-1.2-7.52,0-2.26.15-4.29.45-6.09l26.48-.07c0-2.36-.4-4.39-1.2-6.09-.8-1.7-1.91-3.13-3.31-4.29-1.4-1.15-3.05-2.01-4.93-2.56-1.88-.55-3.92-.83-6.13-.83-2.91,0-5.73.43-8.46,1.28-2.73.85-5.15,2.11-7.26,3.76-2.11,1.65-3.79,3.72-5.04,6.21-1.25,2.48-1.88,5.38-1.88,8.69s.63,6.21,1.88,8.69c1.25,2.48,2.92,4.55,5,6.21,2.08,1.65,4.46,2.91,7.15,3.76,2.68.85,5.48,1.28,8.39,1.28,1.86,0,3.69-.24,5.49-.72,1.81-.48,3.47-1.2,5-2.18,1.53-.98,2.88-2.22,4.06-3.72,1.18-1.51,2.07-3.26,2.67-5.27l-1.2-.22c-.65,1.71-1.46,3.15-2.41,4.33ZM734.69,287.02c1.88-1.98,4.18-2.97,6.88-2.97,2.11,0,3.76.95,4.97,2.86,1.2,1.91,1.85,4.74,1.96,8.5h-17.83c.8-3.61,2.14-6.41,4.03-8.39Z"/><path class="cls-1" d="M794.76,314.86c-.95,1.18-2.01,2.12-3.16,2.82-1.15.7-2.36,1.2-3.61,1.51-1.25.3-2.51.45-3.76.45-1.81,0-3.57-.34-5.3-1.02-1.73-.68-3.25-1.72-4.55-3.12-1.3-1.4-2.36-3.16-3.16-5.27-.8-2.11-1.2-4.61-1.2-7.52,0-2.26.15-4.29.45-6.09l26.48-.07c0-2.36-.4-4.39-1.2-6.09-.8-1.7-1.91-3.13-3.31-4.29-1.4-1.15-3.05-2.01-4.93-2.56-1.88-.55-3.92-.83-6.13-.83-2.91,0-5.73.43-8.46,1.28-2.73.85-5.15,2.11-7.26,3.76-2.11,1.65-3.79,3.72-5.04,6.21-1.25,2.48-1.88,5.38-1.88,8.69s.63,6.21,1.88,8.69c1.25,2.48,2.92,4.55,5,6.21,2.08,1.65,4.46,2.91,7.15,3.76,2.68.85,5.48,1.28,8.39,1.28,1.86,0,3.69-.24,5.49-.72,1.81-.48,3.47-1.2,5-2.18,1.53-.98,2.88-2.22,4.06-3.72,1.18-1.51,2.07-3.26,2.67-5.27l-1.2-.22c-.65,1.71-1.46,3.15-2.41,4.33ZM774.71,287.02c1.88-1.98,4.18-2.97,6.88-2.97,2.11,0,3.76.95,4.97,2.86,1.2,1.91,1.86,4.74,1.96,8.5h-17.83c.8-3.61,2.14-6.41,4.03-8.39Z"/><path class="cls-1" d="M822.48,313.46c-.55,1.91-1.41,3.32-2.56,4.25-1.15.93-2.33,1.39-3.54,1.39s-2.27-.45-3.2-1.35c-.93-.9-1.39-2.61-1.39-5.12v-27.54h9.63v-1.2h-9.63v-8.43h-.68c0,1.36-.65,2.56-1.96,3.61-1.3,1.05-2.8,1.93-4.48,2.63-1.68.7-3.34,1.24-4.97,1.62-1.63.38-2.77.57-3.42.57v1.2h4.36v27.54c0,2.21.39,3.96,1.17,5.27.78,1.3,1.73,2.31,2.86,3.01,1.13.7,2.34,1.17,3.65,1.39,1.3.23,2.48.34,3.54.34,3.46,0,6.19-.84,8.2-2.52,2.01-1.68,3.24-3.9,3.69-6.66h-1.28Z"/></svg>