<?xml version="1.0" encoding="UTF-8"?><svg id="sweetleaves_Logo_Icon" xmlns="http://www.w3.org/2000/svg" viewBox="0 0 405.75 57.9"><defs><style>.cls-1{fill:#010607;}</style></defs><path class="cls-1" d="M213.01,55.14c-.43-.25-.78-.63-1.05-1.13-.28-.5-.41-1.13-.41-1.88V0h-.68c-.45.45-1.33.83-2.64,1.13-1.31.3-2.72.53-4.26.68-1.53.15-3,.26-4.41.34-1.41.07-2.44.11-3.09.11v.68c.3,0,.68.03,1.13.07.45.05.89.16,1.32.34.43.18.78.48,1.05.9.28.43.41,1.02.41,1.77v46.1c0,.75-.14,1.38-.41,1.88-.28.5-.63.88-1.05,1.13-.43.25-.87.43-1.32.53-.45.1-.83.15-1.13.15v.68h18.98v-.68c-.3,0-.68-.05-1.13-.15-.45-.1-.89-.28-1.32-.53Z"/><path class="cls-1" d="M250.68,49.83c-.95,1.18-2.01,2.12-3.16,2.82-1.16.7-2.36,1.21-3.62,1.51-1.26.3-2.51.45-3.77.45-1.81,0-3.58-.34-5.31-1.02-1.73-.68-3.25-1.72-4.56-3.13-1.31-1.41-2.36-3.16-3.16-5.27-.8-2.11-1.21-4.62-1.21-7.53,0-2.26.15-4.29.45-6.1l26.51-.07c0-2.36-.4-4.39-1.21-6.1-.8-1.71-1.91-3.14-3.31-4.29-1.41-1.15-3.05-2.01-4.93-2.56s-3.93-.83-6.14-.83c-2.91,0-5.74.43-8.47,1.28-2.74.85-5.16,2.11-7.27,3.77-2.11,1.66-3.79,3.73-5.05,6.21-1.26,2.49-1.88,5.38-1.88,8.7s.63,6.21,1.88,8.7c1.25,2.49,2.92,4.56,5.01,6.21,2.08,1.66,4.47,2.91,7.16,3.77,2.69.85,5.49,1.28,8.4,1.28,1.86,0,3.69-.24,5.5-.72,1.81-.48,3.48-1.2,5.01-2.18,1.53-.98,2.89-2.22,4.07-3.73,1.18-1.51,2.07-3.26,2.67-5.27l-1.21-.23c-.65,1.71-1.46,3.15-2.41,4.33ZM230.61,21.96c1.88-1.98,4.18-2.98,6.89-2.98,2.11,0,3.77.95,4.97,2.86,1.21,1.91,1.86,4.75,1.96,8.51h-17.85c.8-3.62,2.15-6.41,4.03-8.4Z"/><path class="cls-1" d="M336.56,19.7c.6-.12,1.05-.19,1.36-.19v-.68h-12.8v.68c.3,0,.79.06,1.47.19.68.13,1.31.39,1.88.79.58.4.95.98,1.13,1.73.18.75-.06,1.73-.72,2.94l-9.72,19.43-11.37-21.62c-.35-.7-.46-1.27-.34-1.69.12-.43.38-.78.75-1.05.38-.28.8-.46,1.28-.57.48-.1.87-.15,1.17-.15v-.68h-21.02v.68c.6,0,1.39.24,2.37.72.98.48,1.85,1.39,2.6,2.75l18.61,33.52h1.36l15.67-31.33c.7-1.21,1.43-2.19,2.18-2.94.75-.75,1.48-1.33,2.18-1.73.7-.4,1.36-.66,1.96-.79Z"/><path class="cls-1" d="M365.61,49.83c-.95,1.18-2.01,2.12-3.16,2.82-1.16.7-2.36,1.21-3.62,1.51-1.26.3-2.51.45-3.77.45-1.81,0-3.58-.34-5.31-1.02-1.73-.68-3.25-1.72-4.56-3.13-1.31-1.41-2.36-3.16-3.16-5.27-.8-2.11-1.21-4.62-1.21-7.53,0-2.26.15-4.29.45-6.1l26.51-.07c0-2.36-.4-4.39-1.21-6.1-.8-1.71-1.91-3.14-3.31-4.29-1.41-1.15-3.05-2.01-4.93-2.56s-3.93-.83-6.14-.83c-2.91,0-5.74.43-8.47,1.28-2.74.85-5.16,2.11-7.27,3.77-2.11,1.66-3.79,3.73-5.05,6.21-1.26,2.49-1.88,5.38-1.88,8.7s.63,6.21,1.88,8.7c1.25,2.49,2.92,4.56,5.01,6.21,2.08,1.66,4.47,2.91,7.16,3.77,2.69.85,5.49,1.28,8.4,1.28,1.86,0,3.69-.24,5.5-.72,1.81-.48,3.48-1.2,5.01-2.18,1.53-.98,2.89-2.22,4.07-3.73,1.18-1.51,2.07-3.26,2.67-5.27l-1.21-.23c-.65,1.71-1.46,3.15-2.41,4.33ZM345.54,21.96c1.88-1.98,4.18-2.98,6.89-2.98,2.11,0,3.77.95,4.97,2.86,1.21,1.91,1.86,4.75,1.96,8.51h-17.85c.8-3.62,2.15-6.41,4.03-8.4Z"/><path class="cls-1" d="M403.94,41.54c-1.21-1.53-2.71-2.87-4.52-4.03-1.81-1.15-3.77-2.17-5.88-3.05-2.11-.88-4.07-1.78-5.88-2.71-1.81-.93-3.31-1.96-4.52-3.09-1.21-1.13-1.81-2.5-1.81-4.11,0-.7.12-1.38.38-2.03.25-.65.64-1.24,1.17-1.77.53-.53,1.22-.95,2.07-1.28.85-.33,1.88-.49,3.09-.49s2.17.21,2.9.64c.73.43,1.33.95,1.81,1.58.48.63.9,1.31,1.28,2.03.38.73.78,1.41,1.2,2.03.43.63.97,1.16,1.62,1.58.65.43,1.51.64,2.56.64,1.16,0,2.11-.34,2.86-1.02.75-.68,1.13-1.57,1.13-2.67s-.48-2.12-1.43-2.9c-.95-.78-2.17-1.41-3.65-1.88-1.48-.48-3.13-.82-4.93-1.02-1.81-.2-3.59-.3-5.35-.3-2.91,0-5.42.28-7.53.83-2.11.55-3.85,1.28-5.23,2.18-1.38.9-2.4,1.95-3.05,3.13-.65,1.18-.98,2.42-.98,3.73,0,2.11.58,3.89,1.73,5.35,1.15,1.46,2.61,2.73,4.37,3.8,1.76,1.08,3.65,2.05,5.69,2.9,2.03.85,3.93,1.76,5.69,2.71,1.76.95,3.21,2.01,4.37,3.16,1.15,1.16,1.73,2.59,1.73,4.29,0,2.51-.75,4.23-2.26,5.16-1.51.93-3.52,1.39-6.03,1.39-3.62,0-6.59-1.28-8.93-3.84-2.33-2.56-3.93-6-4.78-10.32h-.75l-3.39,9.26c1.96,1.81,4.44,3.29,7.46,4.44,3.01,1.15,6.48,1.73,10.39,1.73,2.86,0,5.46-.21,7.8-.64,2.33-.43,4.36-1.07,6.06-1.92,1.71-.85,3.02-1.93,3.95-3.24.93-1.31,1.39-2.84,1.39-4.6,0-2.26-.6-4.16-1.81-5.69Z"/><path class="cls-1" d="M295.3,53.44c-.43-.07-.78-.21-1.05-.41-.28-.2-.41-.5-.41-.9v-20.87c0-2.91-.55-5.25-1.66-7.01-1.11-1.76-2.56-3.13-4.37-4.11-1.81-.98-3.87-1.63-6.18-1.96-2.31-.33-4.67-.49-7.08-.49-3.46,0-6.3.31-8.51.94-2.21.63-3.93,1.39-5.16,2.3-1.23.9-2.08,1.87-2.56,2.9-.48,1.03-.72,1.95-.72,2.75,0,1.15.34,2.12,1.02,2.9.68.78,1.7,1.17,3.05,1.17,1.25,0,2.22-.29,2.9-.87.68-.58,1.23-1.31,1.66-2.18.43-.88.79-1.82,1.09-2.82.3-1,.72-1.95,1.24-2.82.53-.88,1.25-1.61,2.18-2.18.93-.58,2.2-.87,3.8-.87,1,0,1.98.18,2.94.53.95.35,1.82.98,2.6,1.88.78.9,1.41,2.15,1.88,3.73.48,1.58.72,3.6.72,6.06-3.01,0-6.11.29-9.3.87-3.19.58-6.09,1.48-8.7,2.71-2.61,1.23-4.76,2.85-6.44,4.86-1.68,2.01-2.52,4.44-2.52,7.31,0,1.26.24,2.54.72,3.84.48,1.31,1.24,2.46,2.3,3.46,1.05,1.01,2.42,1.83,4.11,2.49,1.68.65,3.73.98,6.14.98,1.91,0,3.6-.28,5.08-.83,1.48-.55,2.79-1.28,3.92-2.18.07-.06.12-.12.19-.18-.27-.15-.54-.32-.78-.52-.36-.29-.68-.62-.95-.98-1.04.46-2.19.7-3.47.7-.7,0-1.42-.14-2.15-.41-.73-.28-1.38-.7-1.96-1.28-.58-.58-1.04-1.34-1.39-2.3-.35-.95-.53-2.11-.53-3.46,0-2.16.38-4.09,1.13-5.8.75-1.71,1.83-3.16,3.24-4.37,1.41-1.2,3.08-2.12,5.01-2.75,1.93-.63,4.05-.94,6.36-.94v5.75c3.85-2.9,4.14-5.18,4.15-5.2.06-.61.53-1.13,1.13-1.24.61-.11,1.22.17,1.49.72.18.36,4.35,8.81,1.44,15.83-1.47,3.54-4.15,6.03-7.34,6.85-.29.07-.58.12-.87.16v1.32h.68l14.39-2.26v-.68h-1.13c-.45,0-.89-.04-1.32-.11Z"/><path class="cls-1" d="M288.21,32.96s-.16,3.41-6.29,7.32c-4.75,3.03-6.82,8.95-4.27,11.97,3.07-1.87,5.82-4.45,7.54-7.66-1.1,3.41-3.26,6.41-5.88,8.87,0,0,0,0,0,0,3.05,1.3,8.01-.32,10.3-5.82,2.71-6.51-1.4-14.67-1.4-14.67Z"/><polygon class="cls-1" points="277.66 52.24 277.66 52.24 277.66 52.24 277.66 52.24"/><path class="cls-1" d="M30.73,37.79c-1.81-1.15-3.77-2.17-5.88-3.05s-4.07-1.78-5.88-2.71c-1.81-.93-3.31-1.96-4.52-3.09-1.21-1.13-1.81-2.5-1.81-4.11,0-.7.12-1.38.38-2.03.25-.65.64-1.24,1.17-1.77.53-.53,1.22-.95,2.07-1.28.85-.33,1.88-.49,3.09-.49s2.17.21,2.9.64c.73.43,1.33.95,1.81,1.58.48.63.9,1.31,1.28,2.03.38.73.78,1.41,1.2,2.03.43.63.97,1.16,1.62,1.58.65.43,1.51.64,2.56.64,1.16,0,2.11-.34,2.86-1.02.75-.68,1.13-1.57,1.13-2.67s-.48-2.12-1.43-2.9c-.95-.78-2.17-1.41-3.65-1.88-1.48-.48-3.13-.82-4.93-1.02-1.81-.2-3.59-.3-5.35-.3-2.91,0-5.42.28-7.53.83s-3.85,1.28-5.23,2.18c-1.38.9-2.4,1.95-3.05,3.13-.65,1.18-.98,2.42-.98,3.73,0,2.11.58,3.89,1.73,5.35,1.15,1.46,2.61,2.73,4.37,3.8,1.76,1.08,3.65,2.05,5.69,2.9,2.03.85,3.93,1.76,5.69,2.71,1.76.95,3.21,2.01,4.37,3.16,1.15,1.16,1.73,2.59,1.73,4.29,0,2.51-.75,4.23-2.26,5.16-1.51.93-3.52,1.39-6.03,1.39-3.62,0-6.59-1.28-8.93-3.84-2.33-2.56-3.93-6-4.78-10.32h-.75l-3.39,9.26c1.96,1.81,4.44,3.29,7.46,4.44,3.01,1.15,6.48,1.73,10.39,1.73,2.86,0,5.46-.21,7.8-.64,2.33-.43,4.36-1.07,6.06-1.92,1.71-.85,3.02-1.93,3.95-3.24.93-1.31,1.39-2.84,1.39-4.6,0-2.26-.6-4.16-1.81-5.69s-2.71-2.87-4.52-4.03Z"/><path class="cls-1" d="M100.01,19.97c.6-.12,1.05-.19,1.36-.19v-.68h-12.81v.68c.3,0,.79.06,1.47.19.68.13,1.29.39,1.85.79.55.4.93.97,1.13,1.7.2.73-.03,1.72-.68,2.98l-9.19,19.43-10.7-21.62c-.35-.7-.47-1.28-.34-1.73.12-.45.36-.8.72-1.05.35-.25.77-.43,1.24-.53.48-.1.87-.15,1.17-.15v-.68h-20.34v.68c.6,0,1.39.23,2.37.68.98.45,1.85,1.38,2.6,2.79l6.25,11.9-4.52,9.72-10.7-21.62c-.35-.7-.47-1.28-.34-1.73.12-.45.38-.8.75-1.05.38-.25.79-.43,1.24-.53.45-.1.83-.15,1.13-.15v-.68h-20.34v.68c.6,0,1.39.23,2.37.68.98.45,1.85,1.38,2.6,2.79l17.7,33.52h1.43l9.42-20.19,10.7,20.19h1.43l14.69-31.33c.65-1.25,1.37-2.25,2.15-2.98.78-.73,1.52-1.29,2.22-1.7.7-.4,1.36-.66,1.96-.79Z"/><path class="cls-1" d="M128.74,49.83c-.95,1.18-2.01,2.12-3.16,2.82-1.16.7-2.36,1.21-3.62,1.51-1.26.3-2.51.45-3.77.45-1.81,0-3.58-.34-5.31-1.02-1.73-.68-3.25-1.72-4.56-3.13-1.31-1.41-2.36-3.16-3.16-5.27-.8-2.11-1.21-4.62-1.21-7.53,0-2.26.15-4.29.45-6.1l26.51-.07c0-2.36-.4-4.39-1.21-6.1-.8-1.71-1.91-3.14-3.31-4.29-1.41-1.15-3.05-2.01-4.93-2.56s-3.93-.83-6.14-.83c-2.91,0-5.74.43-8.47,1.28-2.74.85-5.16,2.11-7.27,3.77-2.11,1.66-3.79,3.73-5.05,6.21-1.26,2.49-1.88,5.38-1.88,8.7s.63,6.21,1.88,8.7c1.25,2.49,2.92,4.56,5.01,6.21,2.08,1.66,4.47,2.91,7.16,3.77,2.69.85,5.49,1.28,8.4,1.28,1.86,0,3.69-.24,5.5-.72,1.81-.48,3.48-1.2,5.01-2.18,1.53-.98,2.89-2.22,4.07-3.73,1.18-1.51,2.07-3.26,2.67-5.27l-1.21-.23c-.65,1.71-1.46,3.15-2.41,4.33ZM108.67,21.96c1.88-1.98,4.18-2.98,6.89-2.98,2.11,0,3.77.95,4.97,2.86,1.21,1.91,1.86,4.75,1.96,8.51h-17.85c.8-3.62,2.15-6.41,4.03-8.4Z"/><path class="cls-1" d="M168.81,49.83c-.95,1.18-2.01,2.12-3.16,2.82-1.16.7-2.36,1.21-3.62,1.51-1.26.3-2.51.45-3.77.45-1.81,0-3.58-.34-5.31-1.02-1.73-.68-3.25-1.72-4.56-3.13-1.31-1.41-2.36-3.16-3.16-5.27-.8-2.11-1.21-4.62-1.21-7.53,0-2.26.15-4.29.45-6.1l26.51-.07c0-2.36-.4-4.39-1.21-6.1-.8-1.71-1.91-3.14-3.31-4.29-1.41-1.15-3.05-2.01-4.93-2.56-1.88-.55-3.93-.83-6.14-.83-2.91,0-5.74.43-8.47,1.28-2.74.85-5.16,2.11-7.27,3.77-2.11,1.66-3.79,3.73-5.05,6.21-1.26,2.49-1.88,5.38-1.88,8.7s.63,6.21,1.88,8.7c1.25,2.49,2.92,4.56,5.01,6.21,2.08,1.66,4.47,2.91,7.16,3.77,2.69.85,5.49,1.28,8.4,1.28,1.86,0,3.69-.24,5.5-.72,1.81-.48,3.48-1.2,5.01-2.18,1.53-.98,2.89-2.22,4.07-3.73,1.18-1.51,2.07-3.26,2.67-5.27l-1.21-.23c-.65,1.71-1.46,3.15-2.41,4.33ZM148.74,21.96c1.88-1.98,4.18-2.98,6.89-2.98,2.11,0,3.77.95,4.97,2.86,1.21,1.91,1.86,4.75,1.96,8.51h-17.85c.8-3.62,2.15-6.41,4.03-8.4Z"/><path class="cls-1" d="M194,52.69c-1.16.93-2.33,1.39-3.54,1.39s-2.27-.45-3.2-1.36c-.93-.9-1.39-2.61-1.39-5.12v-27.57h9.64v-1.2h-9.64v-8.44h-.68c0,1.36-.65,2.56-1.96,3.62-1.31,1.06-2.8,1.93-4.48,2.64-1.68.7-3.34,1.24-4.97,1.62-1.63.38-2.78.57-3.43.57v1.2h4.37v27.57c0,2.21.39,3.97,1.17,5.27.78,1.31,1.73,2.31,2.86,3.01,1.13.7,2.35,1.17,3.65,1.39,1.31.23,2.49.34,3.54.34,3.47,0,6.2-.84,8.21-2.52,2.01-1.68,3.24-3.9,3.69-6.67h-1.28c-.55,1.91-1.41,3.33-2.56,4.26Z"/></svg>