<svg preserveAspectRatio="none" width="100%" height="100%" overflow="visible" style="display: block;" viewBox="0 0 67.9995 67.9976" fill="none" xmlns="http://www.w3.org/2000/svg">
<g id="apple">
<path d="M53.528 0C53.6506 0.0804684 53.9396 0.122531 54.2653 0.159108C61.3986 0.949161 67.0445 6.60024 67.8403 13.7308C67.8769 14.0564 67.919 14.3453 67.9995 14.4679V24.5996C54.8855 24.0857 43.8864 13.1182 43.3961 0.00182883H53.5262L53.528 0Z" fill="var(--fill-0, #F4E781)"/>
<path d="M21.6889 0L21.645 28.6047L24.7223 30.0842L24.7643 0H30.9152C31.9269 20.2378 47.7504 36.07 67.9995 37.0575V53.528C67.9995 54.4552 67.522 55.6329 67.2567 56.6205L27.8782 29.0345L27.8141 33.1164C31.4439 37.5952 31.9287 43.7163 28.9247 48.72L55.749 67.5203C54.6568 67.7837 53.828 67.8824 52.7834 67.9976L24.7406 67.9848L24.7113 53.292C19.8246 56.3809 14.1367 56.3535 9.30126 53.2847L9.27199 66.6169C3.84198 64.2138 0.53056 59.2613 0 53.4457L0.0182952 28.5078L6.18925 32.747L6.19291 13.8351L1.00623 10.1921C2.54852 6.1979 5.34402 3.09986 9.28297 1.36613L9.29211 30.0897L12.3785 28.6413L12.3858 0.380396L14.4532 0.00182883H21.6889V0ZM27.8032 41.7119C27.8032 35.7536 22.9714 30.9236 17.0108 30.9236C11.0503 30.9236 6.21853 35.7536 6.21853 41.7119C6.21853 47.6702 11.0503 52.5002 17.0108 52.5002C22.9714 52.5002 27.8032 47.6702 27.8032 41.7119Z" fill="var(--fill-0, #F4E781)"/>
<path d="M20.3223 47.6464L17.0987 44.2521L13.7214 47.6903C13.5366 47.8769 12.9969 47.9336 12.7901 47.8476C12.5487 47.747 12.3364 47.1563 12.4425 46.8418L16.376 35.1958C16.4547 34.9635 16.8663 34.6746 17.0822 34.6709C17.2981 34.6673 17.717 34.9544 17.7939 35.1903L21.5791 46.7686C21.6651 47.0301 21.5334 47.5294 21.3614 47.6885C21.1712 47.8641 20.5455 47.8787 20.3259 47.6464H20.3223Z" fill="var(--fill-0, #F4E781)"/>
</g>
</svg>
