<svg preserveAspectRatio="none" width="100%" height="100%" overflow="visible" style="display: block;" viewBox="0 0 47 68" fill="none" xmlns="http://www.w3.org/2000/svg">
<path id="google" d="M24.1299 67.999H23.023C22.4216 67.772 21.9189 67.3855 21.6403 66.7349C21.2883 65.9133 20.9974 65.0898 20.7348 64.2112C19.803 61.0978 18.4495 58.2502 16.663 55.5461C15.013 53.0482 13.3168 50.7021 11.4814 48.3428L6.81184 42.3381C5.41879 40.5468 4.25446 38.7023 3.18237 36.6972C1.38458 33.3311 0.299318 29.72 0.0894189 25.8913C0.0781239 25.6899 0.0611814 25.5038 0 25.4126V22.283C0.91772 9.28394 11.8165 -0.743158 24.8839 0.0432814C36.4735 0.740439 45.9218 9.85763 46.9242 21.7055C47.0447 23.1302 47.0071 24.6433 46.912 26.1449C46.671 29.9584 45.5792 33.5448 43.7955 36.8872C42.8081 38.7374 41.7502 40.4376 40.4719 42.0912L35.8993 48.0066C34.0074 50.4542 32.1993 52.8515 30.4937 55.4369C28.7289 58.1106 27.3744 60.9059 26.4501 63.9804C26.1724 64.9036 25.8741 65.7689 25.5192 66.6427C25.2453 67.3171 24.7464 67.7464 24.1299 68V67.999ZM32.4986 23.701C32.4986 18.6851 28.4719 14.619 23.504 14.619C18.5361 14.619 14.5094 18.6851 14.5094 23.701C14.5094 28.717 18.5361 32.7831 23.504 32.7831C28.4719 32.7831 32.4986 28.717 32.4986 23.701Z" fill="var(--fill-0, #F4E781)"/>
</svg>
