<svg preserveAspectRatio="none" width="100%" height="100%" overflow="visible" style="display: block;" viewBox="0 0 1836 4438.05" fill="none" xmlns="http://www.w3.org/2000/svg">
<g id="circles">
<path id="Vector" d="M398.5 538.466C545.684 538.466 665 417.926 665 269.233C665 120.54 545.684 0 398.5 0C251.316 0 132 120.54 132 269.233C132 417.926 251.316 538.466 398.5 538.466Z" fill="var(--fill-0, #CEEBF6)"/>
<path id="Vector_2" d="M1402.5 1784.11C1549.68 1784.11 1669 1663.57 1669 1514.88C1669 1366.18 1549.68 1245.64 1402.5 1245.64C1255.32 1245.64 1136 1366.18 1136 1514.88C1136 1663.57 1255.32 1784.11 1402.5 1784.11Z" fill="var(--fill-0, #CEEBF6)"/>
<path id="Vector_3" d="M1478.5 858.717C1659.37 858.717 1806 710.812 1806 528.363C1806 345.914 1659.37 198.01 1478.5 198.01C1297.63 198.01 1151 345.914 1151 528.363C1151 710.812 1297.63 858.717 1478.5 858.717Z" fill="var(--fill-0, #CEEBF6)"/>
<path id="Vector_4" d="M327.5 3395.47C508.373 3395.47 655 3247.56 655 3065.11C655 2882.66 508.373 2734.76 327.5 2734.76C146.627 2734.76 0 2882.66 0 3065.11C0 3247.56 146.627 3395.47 327.5 3395.47Z" fill="var(--fill-0, #CEEBF6)"/>
<path id="Vector_5" d="M398.5 1906.35C579.373 1906.35 726 1758.45 726 1576C726 1393.55 579.373 1245.64 398.5 1245.64C217.627 1245.64 71 1393.55 71 1576C71 1758.45 217.627 1906.35 398.5 1906.35Z" fill="var(--fill-0, #CEEBF6)"/>
<path id="Vector_6" d="M1153.5 3736.93C1334.37 3736.93 1481 3589.03 1481 3406.58C1481 3224.13 1334.37 3076.23 1153.5 3076.23C972.627 3076.23 826 3224.13 826 3406.58C826 3589.03 972.627 3736.93 1153.5 3736.93Z" fill="var(--fill-0, #CEEBF6)"/>
<path id="Vector_7" d="M1503.5 4438.05C1684.37 4438.05 1831 4290.15 1831 4107.7C1831 3925.25 1684.37 3777.34 1503.5 3777.34C1322.63 3777.34 1176 3925.25 1176 4107.7C1176 4290.15 1322.63 4438.05 1503.5 4438.05Z" fill="var(--fill-0, #CEEBF6)"/>
<path id="Vector_8" d="M1508.5 3093.4C1689.37 3093.4 1836 2945.5 1836 2763.05C1836 2580.6 1689.37 2432.69 1508.5 2432.69C1327.63 2432.69 1181 2580.6 1181 2763.05C1181 2945.5 1327.63 3093.4 1508.5 3093.4Z" fill="var(--fill-0, #CEEBF6)"/>
<path id="Vector_9" d="M826.189 1025.86C963.971 1025.86 1075.67 913.019 1075.67 773.824C1075.67 634.629 963.971 521.789 826.189 521.789C688.406 521.789 576.712 634.629 576.712 773.824C576.712 913.019 688.406 1025.86 826.189 1025.86Z" fill="var(--fill-0, #CEEBF6)"/>
<path id="Vector_10" d="M931.477 2351.83C1069.26 2351.83 1180.95 2238.99 1180.95 2099.79C1180.95 1960.6 1069.26 1847.76 931.477 1847.76C793.695 1847.76 682 1960.6 682 2099.79C682 2238.99 793.695 2351.83 931.477 2351.83Z" fill="var(--fill-0, #CEEBF6)"/>
<path id="Vector_11" d="M1145.5 250.543C1189.96 250.543 1226 214.133 1226 169.218C1226 124.303 1189.96 87.8922 1145.5 87.8922C1101.04 87.8922 1065 124.303 1065 169.218C1065 214.133 1101.04 250.543 1145.5 250.543Z" fill="var(--fill-0, #CEEBF6)"/>
<path id="Vector_12" d="M955.5 402.081C999.959 402.081 1036 365.671 1036 320.756C1036 275.841 999.959 239.43 955.5 239.43C911.041 239.43 875 275.841 875 320.756C875 365.671 911.041 402.081 955.5 402.081Z" fill="var(--fill-0, #CEEBF6)"/>
<path id="Vector_13" d="M380.5 1090.06C424.959 1090.06 461 1053.65 461 1008.74C461 963.825 424.959 927.414 380.5 927.414C336.041 927.414 300 963.825 300 1008.74C300 1053.65 336.041 1090.06 380.5 1090.06Z" fill="var(--fill-0, #CEEBF6)"/>
<path id="Vector_14" d="M930.5 1408.3C974.959 1408.3 1011 1371.88 1011 1326.97C1011 1282.05 974.959 1245.64 930.5 1245.64C886.041 1245.64 850 1282.05 850 1326.97C850 1371.88 886.041 1408.3 930.5 1408.3Z" fill="var(--fill-0, #CEEBF6)"/>
<path id="Vector_15" d="M380.5 2375.11C424.959 2375.11 461 2338.7 461 2293.78C461 2248.87 424.959 2212.46 380.5 2212.46C336.041 2212.46 300 2248.87 300 2293.78C300 2338.7 336.041 2375.11 380.5 2375.11Z" fill="var(--fill-0, #CEEBF6)"/>
<path id="Vector_16" d="M1528.5 2180.13C1572.96 2180.13 1609 2143.72 1609 2098.8C1609 2053.89 1572.96 2017.48 1528.5 2017.48C1484.04 2017.48 1448 2053.89 1448 2098.8C1448 2143.72 1484.04 2180.13 1528.5 2180.13Z" fill="var(--fill-0, #CEEBF6)"/>
<path id="Vector_17" d="M745.5 2734.76C789.959 2734.76 826 2698.35 826 2653.43C826 2608.52 789.959 2572.11 745.5 2572.11C701.041 2572.11 665 2608.52 665 2653.43C665 2698.35 701.041 2734.76 745.5 2734.76Z" fill="var(--fill-0, #CEEBF6)"/>
<path id="Vector_18" d="M337.5 3607.62C381.959 3607.62 418 3571.21 418 3526.29C418 3481.38 381.959 3444.97 337.5 3444.97C293.041 3444.97 257 3481.38 257 3526.29C257 3571.21 293.041 3607.62 337.5 3607.62Z" fill="var(--fill-0, #CEEBF6)"/>
<path id="Vector_19" d="M381.477 4213.73C519.259 4213.73 630.954 4100.89 630.954 3961.69C630.954 3822.5 519.259 3709.66 381.477 3709.66C243.695 3709.66 132 3822.5 132 3961.69C132 4100.89 243.695 4213.73 381.477 4213.73Z" fill="var(--fill-0, #CEEBF6)"/>
</g>
</svg>
